<svg xmlns="http://www.w3.org/2000/svg" width="480" height="360" viewBox="0 0 480 360">
  <rect width="480" height="360" rx="30" fill="#f5f7fb" />
  <rect x="48" y="56" width="384" height="248" rx="24" fill="#ffffff" />
  <rect x="48" y="56" width="384" height="72" rx="24" fill="#193354" opacity="0.95" />
  <circle cx="84" cy="92" r="8" fill="#8FC436" opacity="0.85" />
  <circle cx="108" cy="92" r="8" fill="#ffffff" opacity="0.55" />
  <circle cx="132" cy="92" r="8" fill="#ffffff" opacity="0.35" />
  <rect x="92" y="140" width="96" height="144" rx="18" fill="#193354" opacity="0.12" />
  <rect x="100" y="220" width="80" height="64" rx="14" fill="#193354" opacity="0.25" />
  <rect x="212" y="160" width="84" height="124" rx="18" fill="#193354" opacity="0.12" />
  <rect x="220" y="216" width="68" height="68" rx="14" fill="#193354" opacity="0.25" />
  <rect x="320" y="132" width="92" height="152" rx="18" fill="#193354" opacity="0.12" />
  <rect x="332" y="206" width="68" height="78" rx="14" fill="#193354" opacity="0.25" />
  <polyline points="96 248 156 198 224 230 292 180 356 206 388 176" fill="none" stroke="#8FC436" stroke-width="6" stroke-linecap="round" stroke-linejoin="round" />
  <circle cx="156" cy="198" r="8" fill="#8FC436" />
  <circle cx="292" cy="180" r="8" fill="#8FC436" />
  <circle cx="388" cy="176" r="9" fill="#193354" stroke="#8FC436" stroke-width="4" />
  <rect x="78" y="308" width="140" height="10" rx="5" fill="#d5d9e7" />
  <rect x="232" y="308" width="96" height="10" rx="5" fill="#d5d9e7" />
</svg>
