<svg xmlns="http://www.w3.org/2000/svg" width="480" height="360" viewBox="0 0 480 360">
  <defs>
    <linearGradient id="heroGradient" x1="0%" y1="0%" x2="100%" y2="100%">
      <stop offset="0%" stop-color="#193354" />
      <stop offset="100%" stop-color="#0f223e" />
    </linearGradient>
  </defs>
  <rect width="480" height="360" rx="28" fill="url(#heroGradient)" />
  <rect x="48" y="60" width="384" height="210" rx="18" fill="#ffffff" opacity="0.08" />
  <rect x="70" y="122" width="188" height="110" rx="16" fill="#ffffff" opacity="0.15" />
  <rect x="272" y="122" width="138" height="110" rx="16" fill="#ffffff" opacity="0.08" />
  <circle cx="112" cy="104" r="12" fill="#8FC436" />
  <circle cx="144" cy="104" r="12" fill="#6f9829" />
  <rect x="96" y="170" width="132" height="16" rx="8" fill="#8FC436" />
  <rect x="96" y="198" width="92" height="12" rx="6" fill="#33527d" />
  <rect x="304" y="150" width="76" height="16" rx="8" fill="#8FC436" />
  <rect x="304" y="178" width="96" height="12" rx="6" fill="#ffffff" opacity="0.4" />
  <path d="M88 244h304" stroke="#8FC436" stroke-width="6" stroke-linecap="round" opacity="0.35" />
  <path d="M120 268h240" stroke="#ffffff" stroke-width="4" stroke-linecap="round" opacity="0.25" />
  <path d="M140 292h200" stroke="#8FC436" stroke-width="4" stroke-linecap="round" opacity="0.2" />
  <circle cx="380" cy="94" r="32" fill="#8FC436" opacity="0.35" />
  <path d="M360 88h40v12h-40z" fill="#193354" opacity="0.65" />
  <path d="M360 108h28v8h-28z" fill="#193354" opacity="0.65" />
</svg>
